<?xml version="1.0" standalone="no"?>
<!DOCTYPE svg PUBLIC "-//W3C//DTD SVG 20010904//EN"
 "http://www.w3.org/TR/2001/REC-SVG-20010904/DTD/svg10.dtd">
<svg version="1.0" xmlns="http://www.w3.org/2000/svg"
 width="260.000000pt" height="260.000000pt" viewBox="0 0 260.000000 260.000000"
 preserveAspectRatio="xMidYMid meet">
<metadata>
Created by potrace 1.14, written by Peter Selinger 2001-2017
</metadata>
<g transform="translate(0.000000,260.000000) scale(0.100000,-0.100000)"
fill="#000000" stroke="none">
<path d="M1279 2089 c-136 -11 -236 -62 -297 -151 -104 -151 -40 -362 98 -325
27 7 49 36 56 74 3 14 -10 56 -31 103 -29 63 -35 87 -29 115 11 62 78 112 163
122 161 19 285 -102 290 -279 1 -41 -3 -96 -9 -122 -11 -49 -71 -192 -100
-236 -61 -94 -122 -279 -134 -402 -6 -64 -6 -68 14 -68 24 0 27 7 34 75 12
105 51 176 180 330 28 33 53 62 56 65 3 3 22 25 42 50 108 135 147 284 107
408 -37 115 -138 203 -264 230 -78 17 -95 18 -176 11z"/>
<path d="M1273 779 c-78 -23 -110 -125 -58 -188 74 -87 214 -43 217 69 2 50
-21 88 -66 110 -47 22 -47 22 -93 9z"/>
</g>
</svg>
